<?xml version="1.0" standalone="no"?>
<!DOCTYPE svg PUBLIC "-//W3C//DTD SVG 20010904//EN"
 "http://www.w3.org/TR/2001/REC-SVG-20010904/DTD/svg10.dtd">
<svg version="1.0" xmlns="http://www.w3.org/2000/svg"
 width="86.000000pt" height="188.000000pt" viewBox="0 0 86.000000 188.000000"
 preserveAspectRatio="xMidYMid meet">

<g transform="translate(0.000000,188.000000) scale(0.100000,-0.100000)"
fill="#000000" stroke="none">
<path d="M4 1849 c3 -17 6 -42 6 -55 0 -18 8 -27 28 -35 49 -18 185 -91 253
-134 94 -60 201 -165 260 -254 59 -87 149 -269 176 -353 18 -57 18 -58 50 -52
29 5 34 3 43 -21 14 -36 13 -98 -3 -119 -7 -9 -26 -18 -42 -20 -29 -3 -30 -6
-42 -77 -20 -116 -51 -209 -95 -276 -44 -69 -169 -193 -220 -219 -30 -15 -28
-11 23 42 71 75 100 127 138 239 70 212 41 425 -84 620 -90 142 -268 285 -428
344 -65 24 -67 24 -67 13 0 -4 28 -17 63 -30 34 -12 80 -33 101 -46 l40 -24
-60 -30 c-33 -16 -79 -35 -102 -41 -23 -7 -42 -16 -42 -20 0 -5 8 -7 18 -4 10
2 25 -3 32 -12 13 -15 10 -20 -20 -46 -39 -32 -30 -40 10 -9 14 11 28 20 32
20 4 0 23 11 42 23 19 13 61 34 94 46 71 27 69 28 170 -72 94 -92 94 -92 35
-147 -85 -78 -224 -139 -375 -165 -21 -3 -38 -10 -38 -15 0 -13 1 -13 85 5
114 24 222 73 312 142 l83 63 14 -28 c13 -25 11 -31 -30 -102 -24 -41 -45 -79
-48 -85 -2 -6 -9 -5 -17 2 -21 21 -34 15 -14 -7 17 -19 17 -22 -14 -96 -17
-43 -29 -79 -27 -81 7 -7 156 137 187 180 l28 38 12 -40 c11 -38 10 -45 -23
-118 -20 -43 -50 -118 -67 -166 -17 -49 -58 -142 -92 -208 -95 -187 -164 -243
-314 -256 -52 -4 -73 -9 -66 -16 15 -15 151 8 204 34 67 34 133 112 184 218
25 53 73 131 105 174 32 42 55 77 51 77 -5 0 -23 -19 -41 -42 -18 -23 -32 -37
-32 -31 0 12 83 223 99 250 15 27 24 -59 16 -152 -7 -90 -46 -215 -88 -288
-70 -119 -171 -197 -384 -298 -193 -91 -199 -89 307 -89 l430 0 0 940 0 940
-431 0 -432 0 7 -31z m234 -481 c9 -9 -7 -20 -70 -50 -47 -22 -89 -36 -100
-32 -29 9 -21 19 29 37 27 10 62 26 78 36 36 23 47 25 63 9z m308 -402 c-3
-11 -25 -43 -49 -70 l-43 -49 -15 24 c-15 23 -14 28 30 106 l46 82 18 -35 c10
-20 16 -46 13 -58z m-112 -113 c4 -11 -4 -28 -25 -50 -18 -18 -34 -31 -36 -29
-6 5 40 96 48 96 4 0 10 -8 13 -17z m-46 -716 c-9 -7 -25 -17 -35 -24 -16 -11
-16 -12 0 -7 13 5 16 2 11 -12 -4 -12 3 -8 20 11 14 17 25 25 26 18 0 -6 -5
-15 -11 -18 -5 -4 -8 -12 -6 -18 8 -22 -13 -47 -38 -47 -22 0 -25 5 -25 34 0
26 7 41 31 61 17 14 34 23 38 20 3 -4 -2 -12 -11 -18z m-78 -55 l0 -29 -130
-12 c-72 -6 -138 -15 -148 -18 -44 -16 3 10 83 46 68 31 103 41 143 41 51 0
52 -1 52 -28z"/>
<path d="M450 1370 c0 -5 9 -10 20 -10 11 0 20 5 20 10 0 6 -9 10 -20 10 -11
0 -20 -4 -20 -10z"/>
<path d="M440 1340 c0 -5 4 -10 9 -10 6 0 13 5 16 10 3 6 -1 10 -9 10 -9 0
-16 -4 -16 -10z"/>
<path d="M512 1325 c0 -16 2 -22 5 -12 2 9 2 23 0 30 -3 6 -5 -1 -5 -18z"/>
<path d="M416 1315 c-5 -15 25 -55 42 -55 10 0 42 38 42 50 0 6 -4 10 -10 10
-5 0 -10 -6 -10 -12 0 -9 -2 -10 -8 -2 -13 20 -49 26 -56 9z m39 -16 c11 -16
1 -19 -13 -3 -7 8 -8 14 -3 14 5 0 13 -5 16 -11z"/>
<path d="M9 1121 c9 -6 10 -11 2 -15 -6 -4 -11 -13 -11 -21 0 -9 9 -5 25 11
31 31 31 34 -2 34 -20 0 -24 -3 -14 -9z"/>
<path d="M752 893 c3 -41 22 -54 37 -25 14 27 3 62 -21 62 -16 0 -19 -6 -16
-37z m28 0 c-1 -24 -2 -26 -11 -10 -5 9 -7 22 -4 27 10 17 15 11 15 -17z"/>
<path d="M161 706 c11 -9 89 -46 89 -41 0 9 -64 45 -79 45 -8 0 -12 -2 -10 -4z"/>
<path d="M125 639 c1 -17 16 -28 63 -46 34 -14 81 -42 104 -62 39 -33 78 -44
78 -21 0 21 -105 100 -165 124 -79 31 -82 32 -80 5z"/>
</g>
</svg>
